solid OBJECT
  facet normal 0.0084006741059251266 -0.99996471371472206 -9.1193705688524981e-19
    outer loop
      vertex 3.6496276152320206e-06 -9.8196233011549339e-07 0
      vertex 10.084171295166016 0.084715813398361206 0
      vertex 10.084171295166016 0.084715813398361206 3
    endloop
  endfacet
  facet normal 0.0084006741059251266 -0.99996471371472195 -0
    outer loop
      vertex 3.6496276152320206e-06 -9.8196233011549339e-07 0
      vertex 10.084171295166016 0.084715813398361206 3
      vertex 3.6496276152320206e-06 -9.8196233011549339e-07 3
    endloop
  endfacet
  facet normal 0.99734662919110784 -0.072799046979579132 0
    outer loop
      vertex 10.084171295166016 0.084715813398361206 0
      vertex 13.389301300048828 45.364982604980469 0
      vertex 13.389301300048828 45.364982604980469 3
    endloop
  endfacet
  facet normal 0.99734662919110784 -0.072799046979579132 0
    outer loop
      vertex 10.084171295166016 0.084715813398361206 0
      vertex 13.389301300048828 45.364982604980469 3
      vertex 10.084171295166016 0.084715813398361206 3
    endloop
  endfacet
  facet normal 0.62368054663349515 -0.78167933051280336 0
    outer loop
      vertex 13.389301300048828 45.364982604980469 0
      vertex 25.816585540771484 55.280372619628906 0
      vertex 25.816585540771484 55.280372619628906 3
    endloop
  endfacet
  facet normal 0.62368054663349515 -0.78167933051280336 0
    outer loop
      vertex 13.389301300048828 45.364982604980469 0
      vertex 25.816585540771484 55.280372619628906 3
      vertex 13.389301300048828 45.364982604980469 3
    endloop
  endfacet
  facet normal 0.98902835443815607 0.14772580721510148 0
    outer loop
      vertex 25.816585540771484 55.280372619628906 0
      vertex 18.375476837158203 105.09880065917969 0
      vertex 18.375476837158203 105.09880065917969 3
    endloop
  endfacet
  facet normal 0.98902835443815607 0.14772580721510148 0
    outer loop
      vertex 25.816585540771484 55.280372619628906 0
      vertex 18.375476837158203 105.09880065917969 3
      vertex 25.816585540771484 55.280372619628906 3
    endloop
  endfacet
  facet normal 0 1 0
    outer loop
      vertex 18.375476837158203 105.09880065917969 0
      vertex 14.159618377685547 105.09880065917969 0
      vertex 14.159618377685547 105.09880065917969 3
    endloop
  endfacet
  facet normal 0 1 0
    outer loop
      vertex 18.375476837158203 105.09880065917969 0
      vertex 14.159618377685547 105.09880065917969 3
      vertex 18.375476837158203 105.09880065917969 3
    endloop
  endfacet
  facet normal -0.99954707409444576 -0.030093963999990352 0
    outer loop
      vertex 14.159618377685547 105.09880065917969 0
      vertex 15.548374176025391 58.972381591796875 0
      vertex 15.548374176025391 58.972381591796875 3
    endloop
  endfacet
  facet normal -0.99954707409444576 -0.030093963999990352 -0
    outer loop
      vertex 14.159618377685547 105.09880065917969 0
      vertex 15.548374176025391 58.972381591796875 3
      vertex 14.159618377685547 105.09880065917969 3
    endloop
  endfacet
  facet normal 0.017034245003651225 0.99985490672254806 0
    outer loop
      vertex 15.548374176025391 58.972381591796875 0
      vertex 0.9919622540473938 59.220375061035156 0
      vertex 0.9919622540473938 59.220375061035156 3
    endloop
  endfacet
  facet normal 0.017034245003651225 0.99985490672254818 0
    outer loop
      vertex 15.548374176025391 58.972381591796875 0
      vertex 0.9919622540473938 59.220375061035156 3
      vertex 15.548374176025391 58.972381591796875 3
    endloop
  endfacet
  facet normal -0.99985974336858452 0.016747942885862455 -5.1744085340075144e-18
    outer loop
      vertex 0.9919622540473938 59.220375061035156 0
      vertex 3.6496276152320206e-06 -9.8196233011549339e-07 0
      vertex 3.6496276152320206e-06 -9.8196233011549339e-07 3
    endloop
  endfacet
  facet normal -0.99985974336858452 0.016747942885862455 -0
    outer loop
      vertex 0.9919622540473938 59.220375061035156 0
      vertex 3.6496276152320206e-06 -9.8196233011549339e-07 3
      vertex 0.9919622540473938 59.220375061035156 3
    endloop
  endfacet
  facet normal -0 0 -1
    outer loop
      vertex 15.548374176025391 58.972381591796875 0
      vertex 14.159618377685547 105.09880065917969 0
      vertex 18.375476837158203 105.09880065917969 0
    endloop
  endfacet
  facet normal -0 0 -1
    outer loop
      vertex 13.389301300048828 45.364982604980469 0
      vertex 15.548374176025391 58.972381591796875 0
      vertex 25.816585540771484 55.280372619628906 0
    endloop
  endfacet
  facet normal 0 0 -1
    outer loop
      vertex 18.375476837158203 105.09880065917969 0
      vertex 25.816585540771484 55.280372619628906 0
      vertex 15.548374176025391 58.972381591796875 0
    endloop
  endfacet
  facet normal -0 0 -1
    outer loop
      vertex 3.6496276152320206e-06 -9.8196233011549339e-07 0
      vertex 0.9919622540473938 59.220375061035156 0
      vertex 13.389301300048828 45.364982604980469 0
    endloop
  endfacet
  facet normal 0 -0 -1
    outer loop
      vertex 15.548374176025391 58.972381591796875 0
      vertex 13.389301300048828 45.364982604980469 0
      vertex 0.9919622540473938 59.220375061035156 0
    endloop
  endfacet
  facet normal -0 0 -1
    outer loop
      vertex 13.389301300048828 45.364982604980469 0
      vertex 10.084171295166016 0.084715813398361206 0
      vertex 3.6496276152320206e-06 -9.8196233011549339e-07 0
    endloop
  endfacet
  facet normal -0 0 1
    outer loop
      vertex 15.548374176025391 58.972381591796875 3
      vertex 18.375476837158203 105.09880065917969 3
      vertex 14.159618377685547 105.09880065917969 3
    endloop
  endfacet
  facet normal -0 0 1
    outer loop
      vertex 13.389301300048828 45.364982604980469 3
      vertex 25.816585540771484 55.280372619628906 3
      vertex 15.548374176025391 58.972381591796875 3
    endloop
  endfacet
  facet normal 0 0 1
    outer loop
      vertex 18.375476837158203 105.09880065917969 3
      vertex 15.548374176025391 58.972381591796875 3
      vertex 25.816585540771484 55.280372619628906 3
    endloop
  endfacet
  facet normal -0 0 1
    outer loop
      vertex 3.6496276152320206e-06 -9.8196233011549339e-07 3
      vertex 13.389301300048828 45.364982604980469 3
      vertex 0.9919622540473938 59.220375061035156 3
    endloop
  endfacet
  facet normal 0 -0 1
    outer loop
      vertex 15.548374176025391 58.972381591796875 3
      vertex 0.9919622540473938 59.220375061035156 3
      vertex 13.389301300048828 45.364982604980469 3
    endloop
  endfacet
  facet normal -0 0 1
    outer loop
      vertex 13.389301300048828 45.364982604980469 3
      vertex 3.6496276152320206e-06 -9.8196233011549339e-07 3
      vertex 10.084171295166016 0.084715813398361206 3
    endloop
  endfacet
endsolid OBJECT
